<svg width="20" height="24" viewBox="0 0 20 24" xmlns="http://www.w3.org/2000/svg"><title>WeChat</title><g fill-rule="nonzero" fill="#555"><path d="M14.5183673 9.5510204c-.244898-3.089796-3.4040816-5.542857-7.2510204-5.542857C3.2591836 4.0081633 0 6.6693877 0 9.9387753c0 2.169388 1.4 4.112245 3.687755 5.1632654-.3163264 1.0693878-1.2081632 2.4061225-1.5040815 2.7142857-.1265306.132653-.177551.3183674-.1387755.4959184.0387755.177551.165306.3244897.3367346.3897958.134694.0510204.2857143.077551.4612245.077551 1.2489797 0 4.3306124-1.5836734 5.169388-2.942857.6673468-.055102 1.3061224-.1836736 1.9040815-.3755103-.2816326-.5204082-.4367347-1.0938776-.4367347-1.6979592 0-2.289796 2.2489796-4.157143 5.0387755-4.212245zM4.6387755 9.534694c-.477551 0-.865306-.3877552-.865306-.8653062s.387755-.8653062.865306-.8653062.865306.387755.865306.8653062c0 .477551-.387755.865306-.865306.865306zm4.3755102-.8653062c0-.477551.387755-.8653062.865306-.8653062.4775512 0 .8653063.387755.8653063.8653062 0 .477551-.387755.865306-.8653062.865306-.477551 0-.865306-.387755-.865306-.865306z"/><path d="M20 13.9469388c0-2.2959184-2.287755-4.1632653-5.1020408-4.1632653-2.8142857 0-5.1020408 1.867347-5.1020408 4.1632653 0 2.142857 1.9938775 3.9265306 4.5795918 4.1408163.587755.9530613 2.7530612 2.0653062 3.6285714 2.0653062.122449 0 .2285715-.0183673.322449-.0530612.1204082-.0469388.2081633-.1489796.2367347-.2734694.0285714-.1244898-.0081633-.255102-.0959184-.3489796-.2081633-.2163265-.834694-1.155102-1.055102-1.9061224C19.0163264 16.834694 20 15.4714286 20 13.9469388zm-6.8959184-.0612245c-.3795918 0-.687755-.3081633-.687755-.687755 0-.379592.3081632-.6877552.687755-.6877552.379592 0 .687755.3081634.687755.6877552 0 .3795918-.308163.687755-.687755.687755zm3.9 0c-.3795918 0-.687755-.3081633-.687755-.687755 0-.379592.3081632-.6877552.687755-.6877552.379592 0 .687755.3081634.687755.6877552 0 .3795918-.308163.687755-.687755.687755z"/></g></svg>