<svg width="20" height="24" viewBox="0 0 20 24" xmlns="http://www.w3.org/2000/svg"><title>YouTube</title><path d="M19.2204516 6.2674193c-.7219355-.8581935-2.0548387-1.208258-4.600387-1.208258H5.3797418c-2.6038065 0-3.9592904.3726452-4.6785162 1.2863226C0 7.2363225 0 8.548903 0 10.3655483v3.462516c0 3.5194195.832 5.3063227 5.379742 5.3063227h9.240387c2.207484 0 3.4307097-.308903 4.2220645-1.066258C19.653742 17.291484 20 16.0234194 20 13.8280645v-3.462516c0-1.9158066-.054258-3.236129-.7795484-4.098129zm-6.380387 6.3074194l-4.196 2.1929677c-.0938065.0490323-.1963872.073355-.2988388.073355-.116 0-.231742-.031226-.334258-.0932904-.1930323-.1169678-.3109033-.3261936-.3109033-.551871V9.824129c0-.2252903.1175484-.4343225.3101936-.5513548.1927097-.1170323.4323872-.1250323.6323226-.0211613l4.196 2.1788386c.213484.1108387.3475484.3312258.347871.5716774.000258.2406452-.1332258.461355-.346387.5727097z" fill-rule="nonzero" fill="#555"/></svg>