<svg width="20" height="24" viewBox="0 0 20 24" xmlns="http://www.w3.org/2000/svg"><title>Twitter</title><path d="M20 5.8930518c-.7361123.321243-1.5259502.5391063-2.3558208.6363707.8473543-.4997435 1.4959828-1.2924068 1.8034016-2.2340244-.794838.4627947-1.6721923.798843-2.6070304.9810127C16.0919544 4.4898947 15.0271487 4 13.846101 4c-2.2658206 0-4.1029805 1.8093696-4.1029805 4.0396927 0 .3163186.036242.6252668.106242.920697-3.409352-.1686517-6.432527-1.7773772-8.4558962-4.2218945C1.039773 5.334248.8385635 6.0284238.8385635 6.7694295c0 1.401966.7248704 2.6389818 1.824676 3.362704-.6723866-.0221437-1.3047732-.2043134-1.8584016-.507114v.0504666c0 1.9570688 1.4147408 3.590416 3.2906262 3.962158-.3436934.091085-.7061123.1415517-1.0810475.1415517-.264935 0-.5211447-.025845-.7723542-.0750886.5223865 1.6062794 2.0371275 2.774354 3.8318036 2.8063784C4.670367 17.5936546 2.900691 18.237396.9785638 18.237396c-.331177 0-.6573867-.0196976-.9785637-.0553913C1.815918 19.3304137 3.9717712 20 6.2888338 20c7.5473326 0 11.6728295-6.1567874 11.6728295-11.4962574l-.0137582-.5231102c.80608-.5662387 1.503434-1.277666 2.052095-2.0875806z" fill-rule="nonzero" fill="#555"/></svg>