<svg width="18" height="24" viewBox="0 0 18 24" xmlns="http://www.w3.org/2000/svg"><title>Instagram</title><g fill-rule="nonzero" fill="#555"><path d="M13.1364492 3H4.8635508C2.1817968 3 0 5.181797 0 7.8635508v8.2728984C0 18.8182032 2.181797 21 4.8635508 21h8.2728984C15.8182032 21 18 18.818203 18 16.1364492V7.8635508C18 5.1817968 15.818203 3 13.1364492 3zm3.4093477 13.1364492c0 1.8799102-1.5294025 3.4093477-3.4093478 3.4093477H4.8635508c-1.8799102 0-3.4093477-1.5294025-3.4093477-3.4093478V7.8635508c0-1.8799102 1.5294025-3.4093477 3.4093478-3.4093477h8.2728984c1.8799102 0 3.4093477 1.5294025 3.4093477 3.4093478v8.2728984z"/><path d="M12.8941095 11.4221174c-.1248112-.8417754-.5088114-1.6047126-1.1104768-2.2064413-.6016654-.6016943-1.3645224-.985769-2.206175-1.110559-.3832116-.0568226-.771738-.0568226-1.154915 0-1.040185.1542814-1.957993.7044-2.5844148 1.549056-.626422.844656-.8865025 1.8827554-.7322373 2.922981.1542653 1.0402597.704326 1.9581642 1.5488933 2.5846863.6856386.5085905 1.498626.7756597 2.336884.7756597.1943145 0 .390035-.0143342.5857553-.04338 1.0401848-.1542814 1.957993-.7044 2.5844148-1.549056.6264563-.8446217.8865368-1.8826868.7322715-2.9229466zm-3.5247162 3.0688608c-.665374.0988307-1.3293765-.067659-1.869665-.468434-.5402884-.4007754-.89216-.9879984-.9908088-1.6534423-.0986832-.665444.0676517-1.3295163.4683848-1.8698615.4007674-.5403453.9878944-.892254 1.6533027-.9909474.122548-.018175.2459535-.0272623.3693588-.0272623.1234054 0 .246845.0090874.3693932.0272967 1.105162.1638834 1.9578213 1.016598 2.1217218 2.1219106.2036754 1.3736847-.7480786 2.6570433-2.1216875 2.8607402zM14.3778677 7.1846323c-.15714-.157099-.3746147-.2471323-.5966177-.2471323s-.4394778.0899924-.5966177.2471323c-.157099.15714-.2471323.3742476-.2471323.5966177 0 .22237.0900332.4394778.2471323.5966177.15714.157099.3746147.2471323.5966177.2471323s.4394778-.0899924.5966177-.2471323c.157099-.15714.2471323-.3746147.2471323-.5966177 0-.2220438-.0900332-.4395186-.2471323-.5966177z"/></g></svg>