<svg width="18" height="24" viewBox="0 0 18 24" xmlns="http://www.w3.org/2000/svg"><title>Facebook</title><path d="M17.0059277 3H.9934795C.445169 3 0 3.4442798 0 3.9934795v16.0124482C0 20.5551274.445169 21 .9934795 21H9.614108v-6.970658H7.268524v-2.716953h2.345584V9.3088322c0-2.3245407 1.4193834-3.59099 3.4934794-3.59099.9943687 0 1.8470658.0743924 2.095732.1066983v2.429757l-1.4386484.0005927c-1.1277415 0-1.3452875.536159-1.3452875 1.322466v1.7341434h2.690575l-.351808 2.7166568h-2.3390634v6.9709543h4.5865443c.5489034 0 .9943687-.4454653.9943687-.993183V3.9928867C17.9997036 3.4442798 17.554831 3 17.0059277 3z" fill-rule="nonzero" fill="#555"/></svg>