<svg width="30" height="24" viewBox="0 0 30 24" xmlns="http://www.w3.org/2000/svg"><title>Soundcloud</title><path d="M.3397322 12.7749548c-.0625907 0-.1122762.0482877-.120342.117178L0 14.5548374l.2193902 1.634054c.0080658.0688903.0577513.116856.120342.116856.060655 0 .1100178-.0476437.1196967-.1162122v-.000322.000322l.260042-1.6346978-.260042-1.6630265c-.0093564-.0685685-.0593645-.1168562-.1196968-.1168562zm1.2337474-.9084516c-.0103243-.0714657-.061623-.120719-.124859-.120719-.0635585 0-.1161476.050863-.1248587.120719 0 .000644-.2948864 2.6883342-.2948864 2.6883342l.2948863 2.6287795c.0083883.0704998.0609775.1213628.1248587.1213628.0629134 0 .114212-.0495753.1245363-.120719l.335538-2.6294234-.3352154-2.6883342zm4.647201-2.4797315c-.120987 0-.2210032.0988287-.2268106.2243766l-.2348766 4.9459426.2348766 3.19632c.00613.124904.1058235.223411.2268107.223411.120342 0 .2200355-.0988288.2271335-.2240547v.0009657l.2655267-3.196642-.2655268-4.9459427c-.007098-.125548-.1067915-.2243766-.2271335-.2243766zM3.8154542 11.105812c-.092918 0-.1687368.074041-.1761573.1728696l-.2645588 3.2771216.2645587 3.1705668c.007098.098185.0832392.172226.1761574.172226.0919504 0 .167769-.074041.175835-.172226l.3006936-3.1705668-.3006937-3.2777654c-.008066-.098185-.0838846-.172226-.175835-.172226zM8.664946 17.9765c.1500242 0 .2719793-.120719.2781093-.2752396l.2303598-3.14256-.230037-6.5848252c-.00613-.1545205-.1280852-.2752396-.2781094-.2752396-.1513147 0-.2735925.121041-.278432.2755615 0 .000322-.2042265 6.5841815-.2042265 6.5841815l.2042266 3.1438477c.0048395.1532328.1271173.2742738.2781094.2742738zm5.004033.0148082c.2064848 0 .3768348-.1696506.3807064-.3782532v.0022534-.0022534l.160671-3.052423-.160671-7.6049824c-.003549-.2082807-.1742216-.3782532-.3807065-.3782532-.2068077 0-.3774804.1696506-.3807067.3785752l-.1435715 7.602085c0 .0048288.1435715 3.05693.1435715 3.05693.0032263.206671.1742217.3763216.3807066.3763216zm-2.521052-.011911c.1797065 0 .3245686-.143897.329408-.3273902v.0022535l.1955155-3.0949162-.195838-6.632469c-.0048396-.1834932-.1497016-.3270684-.329408-.3270684-.180997 0-.325859.143575-.3297306.3270682l-.1738992 6.632791.1742217 3.0942723c.0038716.1815616.1487337.3254588.3297306.3254588zm-6.1345377-.0289725c.1067914 0 .193257-.0853082.2013228-.1976574l.2832716-3.196964-.2832716-3.041156c-.007743-.1123493-.0942087-.1970136-.2013227-.1970136-.1084046 0-.1948702.085308-.2016455.1983012l-.249395 3.0398682.249395 3.196642c.007098.1126713.093241.1979795.2016455.1979795zm-2.3861914-.1751232c.078077 0 .141313-.0614863.1503468-.1464725l.3181158-3.0736697-.3177932-3.18956c-.0093564-.085308-.0725924-.1467944-.1506695-.1467944-.079045 0-.142281.061808-.150347.1467944 0 .000322-.280045 3.18956-.280045 3.18956l.280045 3.0730257c.0077433.0853083.0709793.1471165.150347.1471165zm9.7764155-9.958844c-.1951928 0-.3516696.1548423-.3555412.3531436l-.1587353 6.390387.1587353 3.0749574c.0038716.195726.1600258.3505683.3555412.3505683.19487 0 .350379-.1545205.354896-.3528217v.0025753l.1780932-3.0749573-.1780933-6.3913528c-.0045168-.1976574-.1600258-.3524998-.354896-.3524998zm-4.965317 10.166481c.1348605 0 .2461687-.109774.2526214-.2498082l.2477818-3.1750737-.247782-6.0771612c-.0067752-.140356-.1177608-.249808-.2526213-.249808-.136151 0-.2471366.1097738-.252944.249808 0 .000322-.2193903 6.0771612-.2193903 6.0771612l.219713 3.1763613c.0054847.1387465.1164703.2485204.2526213.2485204zm2.766898-.2997055v-.0016095l.2129375-3.122601-.2129376-6.8066267c-.005162-.1690068-.138732-.3016368-.3035974-.3016368-.1658332 0-.299403.132308-.30392.3016368l-.1890627 6.8063046.1893854 3.1242107c.0045168.1673973.1380868.2997054.3035973.2997054.165188 0 .2981126-.132308.3035974-.300671v.0012876zm16.105178-7.0477428c-.5055653 0-.987901.102048-1.4273268.2858628C24.58945 7.603026 21.800613 5 18.398774 5c-.8323923 0-1.6438135.1635342-2.3603807.4400614-.278432.1075205-.3526375.2182602-.3552186.4329792V17.558651c.0029037.2253423.1780932.4130202.3984514.4352326C16.0909825 17.9948493 26.244233 18 26.31005 18 28.347798 18 30 16.3514598 30 14.317906c0-2.0335537-1.6518793-3.6824158-3.6896274-3.6824158zm-11.381513-4.772751c-.2216487 0-.4036135.1815616-.4068398.4046505l-.1664785 8.294208.166801 3.0102518c.0029038.2198698.1848686.4011094.4065173.4011094.2210034 0 .4029682-.1812397.4061945-.4043286v.003541l.180997-3.0105737-.180997-8.2948518c-.0032263-.2224452-.185191-.4040067-.4061945-.4040067z" fill-rule="nonzero" fill="#555"/></svg>