<?xml version="1.0" encoding="UTF-8"?>
<svg width="310px" height="20px" viewBox="0 0 310 20" version="1.1" xmlns="http://www.w3.org/2000/svg" xmlns:xlink="http://www.w3.org/1999/xlink">
    <!-- Generator: Sketch 42 (36781) - http://www.bohemiancoding.com/sketch -->
    <title>Artboard</title>
    <desc>Created with Sketch.</desc>
    <defs>
        <polygon id="path-1" points="309.416021 19.319331 309.416021 0.000218309859 0 0.000218309859 0 19.319331"></polygon>
    </defs>
    <g id="Page-1" stroke="none" stroke-width="1" fill="none" fill-rule="evenodd">
        <g id="Artboard">
            <g id="Page-1">
                <mask id="mask-2" fill="white">
                    <use xlink:href="#path-1"></use>
                </mask>
                <g id="Clip-2"></g>
                <path d="M86.1109049,0 C80.5898486,0 76.3622782,4.18609155 76.3622782,9.65257042 C76.3622782,15.1190493 80.5898486,19.3062324 86.1109049,19.3062324 C91.6330528,19.3062324 95.8606232,15.1190493 95.8606232,9.65257042 C95.8606232,4.18609155 91.6330528,0 86.1109049,0 L86.1109049,0 Z M86.1109049,17.0456338 C81.916081,17.0456338 79.0114683,13.8703169 79.0114683,9.65257042 C79.0114683,5.43482394 81.916081,2.25950704 86.1109049,2.25950704 C90.3068204,2.25950704 93.2125246,5.43482394 93.2125246,9.65257042 C93.2125246,13.8703169 90.3068204,17.0456338 86.1109049,17.0456338 L86.1109049,17.0456338 Z M59.0852359,4.53211268 C59.0852359,3.30957746 60.1866092,2.17764085 62.0073134,2.17764085 C63.5835106,2.17764085 65.1127711,2.62299296 66.2501655,3.22661972 L66.2501655,0.978028169 C65.2885106,0.368943662 63.6686514,0.0207394366 62.1590387,0.0207394366 C59.5677007,0.0207394366 56.5965035,1.4746831 56.5965035,4.93707746 C56.5965035,9.95820423 64.5986514,10.2354577 64.5986514,14.3626056 C64.5986514,16.0534155 63.4285106,17.093662 61.3742148,17.093662 C59.453088,17.093662 58.1421373,16.5609859 56.70675,15.3864789 L56.70675,18.0705986 C57.7928415,18.8903521 59.4345317,19.319331 61.2596021,19.319331 C64.9239331,19.319331 67.1441444,16.9255634 67.1441444,14.0438732 C67.1441444,8.49552817 59.0852359,7.8984507 59.0852359,4.53211268 L59.0852359,4.53211268 Z M39.0454824,4.53211268 C39.0454824,3.30957746 40.1457641,2.17764085 41.9675599,2.17764085 C43.5426655,2.17764085 45.0719261,2.62299296 46.210412,3.22661972 L46.210412,0.978028169 C45.248757,0.368943662 43.6288979,0.0207394366 42.1192852,0.0207394366 C39.5279472,0.0207394366 36.5556585,1.4746831 36.5556585,4.93707746 C36.5556585,9.95820423 44.5588979,10.2354577 44.5588979,14.3626056 C44.5588979,16.0534155 43.388757,17.093662 41.3333697,17.093662 C39.412243,17.093662 38.1012923,16.5609859 36.6669965,15.3864789 L36.6669965,18.0705986 C37.7519965,18.8903521 39.3936866,19.319331 41.218757,19.319331 C44.8841796,19.319331 47.1043908,16.9255634 47.1043908,14.0438732 C47.1043908,8.49552817 39.0454824,7.8984507 39.0454824,4.53211268 L39.0454824,4.53211268 Z M121.742349,15.0808451 L109.039989,0.273978873 L106.856891,0.273978873 L106.856891,19.0693662 L109.388194,19.0693662 L109.388194,4.33454225 L121.984673,19.0693662 L124.274743,19.0693662 L124.274743,0.273978873 L121.742349,0.273978873 L121.742349,15.0808451 Z M22.6853415,19.0693662 L25.3781937,19.0693662 L25.3781937,0.275070423 L22.6853415,0.275070423 L22.6853415,19.0693662 Z M153.54682,9.31309859 L161.071961,9.31309859 L161.071961,17.812993 C158.758968,18.8095775 156.119602,19.3062324 153.84263,19.3062324 C147.13506,19.3062324 143.519849,15.2969718 143.519849,9.75626761 C143.519849,3.49732394 148.125095,0.0130985915 154.205025,0.0130985915 C157.188229,0.0130985915 160.187806,0.79028169 160.187806,0.79028169 L160.187806,3.2593662 C160.187806,3.2593662 157.179496,2.25841549 154.390588,2.25841549 C148.749461,2.25841549 146.250905,5.11609155 146.250905,9.6940493 C146.250905,12.5157042 147.588053,16.9877817 154.030377,16.9877817 C156.783264,16.9877817 158.380201,16.4169014 158.380201,16.4169014 L158.380201,11.6315493 L153.54682,11.6315493 L153.54682,9.31309859 Z M283.125729,5.41954225 C283.125729,2.75507042 281.455658,0.273978873 276.844954,0.273978873 L270.351327,0.273978873 L270.351327,19.0693662 L273.03763,19.0693662 L273.03763,10.7997887 L277.791327,10.7997887 L283.586363,19.0693662 L286.81844,19.0693662 L280.270236,9.8468662 C281.732912,9.16573944 283.125729,7.45309859 283.125729,5.41954225 L283.125729,5.41954225 Z M276.970482,8.41038732 L273.03763,8.41038732 L273.03763,2.68084507 L277.100377,2.68084507 C279.433018,2.68084507 280.352102,3.97978873 280.352102,5.42827465 C280.352102,7.00883803 279.433018,8.41038732 276.970482,8.41038732 L276.970482,8.41038732 Z M306.461961,0.273978873 L301.293475,8.44422535 L296.070412,0.273978873 L292.813229,0.273978873 L299.78168,10.8139789 L299.78168,19.0693662 L302.498546,19.0693662 L302.498546,10.8139789 L309.416785,0.273978873 L306.461961,0.273978873 Z M178.630623,0.255422535 L170.90682,19.0693662 L173.425025,19.0693662 L175.481504,13.8408451 L183.962842,13.8408451 L185.994215,19.0693662 L188.816961,19.0693662 L181.104074,0.255422535 L178.630623,0.255422535 Z M176.32418,11.7101408 L179.711257,2.89697183 L183.135447,11.7101408 L176.32418,11.7101408 Z M248.664426,10.8041549 L254.683229,10.8041549 L254.683229,8.40711268 L248.664426,8.40711268 L248.664426,2.68084507 L258.331187,2.68084507 L258.331187,0.273978873 L245.974849,0.273978873 L245.974849,19.0693662 L258.588792,19.0693662 L258.588792,16.6690493 L248.664426,16.6690493 L248.664426,10.8041549 Z M202.948158,0.273978873 L200.259673,0.273978873 L200.259673,19.0693662 L211.398933,19.0693662 L211.398933,16.6439437 L202.948158,16.6439437 L202.948158,0.273978873 Z M225.78337,0.273978873 L223.094884,0.273978873 L223.094884,19.0693662 L234.236327,19.0693662 L234.236327,16.6439437 L225.78337,16.6439437 L225.78337,0.273978873 Z M2.68815845,0.273978873 L-0.000327464789,0.273978873 L-0.000327464789,19.0693662 L11.1400246,19.0693662 L11.1400246,16.6439437 L2.68815845,16.6439437 L2.68815845,0.273978873 Z" id="Fill-1" fill="#221F20" mask="url(#mask-2)"></path>
            </g>
        </g>
    </g>
</svg>